<svg xmlns="http://www.w3.org/2000/svg" width="375" height="216" viewBox="0 0 375 216">
<rect width="375" height="216" fill="#354254"/>
<path d="M113.58 43.08c0-4.97 4.03-9 9-9h129.85c4.97 0 9 4.03 9 9v129.85c0 4.97-4.03 9-9 9h-129.85c-4.97 0-9-4.03-9-9z" fill="none" stroke="#ffffff" stroke-width="2"/>
<path d="M120.8 45.33c0-2.21 1.79-4 4-4h125.4c2.21 0 4 1.79 4 4v125.37c0 2.21-1.79 4-4 4h-125.4c-2.21 0-4-1.79-4-4z" fill="none" stroke="#ffffff" stroke-width="2"/>
<path d="M143.59 135.04a8.02 8.02 0 1 0 0 16.04 8.02 8.02 0 1 0 0-16.04z" fill="none" stroke="#ffffff" stroke-width="2"/>
<path d="M172.87 135.04a8.02 8.02 0 1 0 0 16.04 8.02 8.02 0 1 0 0-16.04z" fill="none" stroke="#ffffff" stroke-width="2"/>
<path d="M202.13 135.04a8.02 8.02 0 1 0 0 16.04 8.02 8.02 0 1 0 0-16.04z" fill="none" stroke="#ffffff" stroke-width="2"/>
<path d="M231.41 135.04a8.02 8.02 0 1 0 0 16.04 8.02 8.02 0 1 0 0-16.04z" fill="none" stroke="#ffffff" stroke-width="2"/>
<path d="M136.36 58.55c0-1.1 0.9-2 2-2h98.28c1.1 0 2 0.9 2 2v59.6c0 1.1-0.9 2-2 2h-98.28c-1.1 0-2-0.9-2-2z" fill="none" stroke="#ffffff" stroke-width="2"/>
<path d="M218.84 100.44v0.85h-64.1v-0.85h64.1Zm0.84-0.84v-3.37c0-0.47-0.37-0.85-0.84-0.85h-64.1c-0.47 0-0.84 0.38-0.84 0.85v3.37c0 0.47 0.37 0.84 0.84 0.84v0.85c-0.87 0-1.6-0.67-1.68-1.52V99.6v-3.37c0-0.94 0.75-1.7 1.68-1.7h64.1c0.93 0 1.69 0.76 1.69 1.7v3.37l-0.01 0.17c-0.09 0.85-0.8 1.52-1.68 1.52v-0.85c0.47 0 0.84-0.38 0.84-0.84Z" fill="#f9d837"/>
<path d="M154.74 96.23h43.8v3.37h-43.8v-3.37Z" fill="#f9d837"/>
<path d="M158.26 85.93h58.49v2.36h-58.49z" fill="#ffffff"/>
</svg>
