<svg xmlns="http://www.w3.org/2000/svg" viewBox="0 0 375.0 216.0" role="img" aria-label="Illustration officielle Delta Dore"><path d="M98 26c0-4.42 3.58-8 8-8h164c4.42 0 8 3.58 8 8v164c0 4.42-3.58 8-8 8h-164c-4.42 0-8-3.58-8-8z" fill="none" stroke="#ffffff" stroke-width="2.0"/><path d="M120.5 48.5c0-4.42 3.58-8 8-8H188v135h-59.5c-4.42 0-8-3.58-8-8v-119Z" fill="none" stroke="#ffffff" stroke-width="2.0"/><path d="M188 40.5h59.5c4.42 0 8 3.58 8 8v119c0 4.42-3.58 8-8 8H188v-135Z" fill="#5d6876" stroke="#f9d837" stroke-width="4.0"/><path d="M147.72 114l4.96-11.36h1.63l4.96 11.36h-1.95l-1.3-2.98h-5.08l-1.28 2.98h-1.94Zm3.94-4.64h3.64l-1.82-4.2-1.82 4.2Z" fill="#ffffff" stroke="none"/><path d="M217.84 114v-11.36h3.92c2.04 0 3.4 1.44 3.4 3.14 0 1-0.44 1.72-1.06 2.19 1.04 0.43 1.83 1.3 1.83 2.7 0 1.89-1.5 3.33-3.67 3.33h-4.41Zm1.88-6.58h1.95c1.02 0 1.65-0.67 1.65-1.53 0-0.83-0.63-1.54-1.65-1.54h-1.95v3.07Zm0 4.87h2.5c1.2 0 1.88-0.69 1.88-1.63 0-0.93-0.67-1.64-1.89-1.64h-2.5v3.27Z" fill="#ffffff" stroke="none"/></svg>